<svg width="386" height="386" viewBox="0 0 386 386" fill="none" xmlns="http://www.w3.org/2000/svg">
<g clip-path="url(#clip0_174_5)">
<g filter="url(#filter0_d_174_5)">
<path fill-rule="evenodd" clip-rule="evenodd" d="M142.724 153.546L131.019 133.131C128.268 128.343 126.898 125.946 127.536 123.597C128.174 121.248 130.565 119.867 135.367 117.095L165.993 99.4128C204.453 77.2079 223.683 66.1054 242.523 71.1277C255.499 74.5703 264.779 84.7458 276.544 103.268C278.87 106.944 280.044 108.79 280.065 110.446C280.075 112.109 278.182 115.291 274.381 121.678C272.235 125.268 271.088 129.366 271.056 133.548C271.025 137.731 272.111 141.846 274.202 145.468C276.293 149.09 279.314 152.088 282.951 154.151C286.589 156.215 290.712 157.271 294.894 157.208C302.319 157.099 306.038 157.055 307.463 157.901C308.887 158.747 309.893 160.676 311.909 164.545C322.077 183.989 326.233 197.109 322.743 210.072C317.682 228.894 298.452 239.996 259.982 262.207L224.269 282.826C223.602 283.213 222.865 283.465 222.1 283.567C221.336 283.669 220.558 283.62 219.813 283.421C219.067 283.223 218.368 282.88 217.755 282.412C217.142 281.943 216.627 281.359 216.24 280.692L201.467 255.292C198.225 249.675 191.025 247.755 185.398 251.003L173.649 230.654C179.276 227.406 181.213 220.21 177.97 214.593L166.221 194.244C162.979 188.628 155.779 186.707 150.152 189.956L138.403 169.606C144.03 166.358 145.967 159.162 142.724 153.546Z" fill="#BE1E2F"/>
</g>
<g filter="url(#filter1_d_174_5)">
<path d="M138.394 169.614C132.767 172.862 125.567 170.942 122.325 165.325L110.717 145.22C107.885 140.316 106.47 137.864 104.029 137.279C101.593 136.678 99.2504 138.166 94.5553 141.148C76.064 152.896 65.9046 162.18 62.4225 175.111C58.9259 188.064 63.1041 201.199 73.2617 220.648C75.2826 224.501 76.288 226.43 77.7126 227.277C79.143 228.133 82.8559 228.079 90.2815 227.97C94.4635 227.907 98.5863 228.962 102.224 231.026C105.862 233.09 108.882 236.088 110.973 239.71C113.065 243.332 114.151 247.447 114.119 251.629C114.088 255.811 112.94 259.909 110.795 263.499C106.993 269.886 105.09 273.074 105.11 274.731C105.127 276.404 106.305 278.233 108.631 281.91C120.396 300.432 129.676 310.607 142.658 314.06C156.721 317.811 171.013 312.558 193.4 300.392C194.084 300.019 194.686 299.513 195.171 298.904C195.656 298.295 196.015 297.595 196.225 296.845C196.436 296.095 196.494 295.311 196.397 294.538C196.3 293.765 196.049 293.02 195.66 292.345L181.068 267.072C177.825 261.455 179.762 254.259 185.388 251.011L173.64 230.662C172.303 231.437 170.827 231.941 169.296 232.145C167.765 232.349 166.208 232.249 164.716 231.85C163.223 231.452 161.824 230.763 160.598 229.823C159.372 228.883 158.343 227.711 157.57 226.373L145.822 206.024C142.579 200.407 144.516 193.212 150.142 189.963L138.394 169.614Z" fill="#E2BABF"/>
</g>
</g>
<defs>
<filter id="filter0_d_174_5" x="121.881" y="68.4355" width="207.577" height="224.684" filterUnits="userSpaceOnUse" color-interpolation-filters="sRGB">
<feFlood flood-opacity="0" result="BackgroundImageFix"/>
<feColorMatrix in="SourceAlpha" type="matrix" values="0 0 0 0 0 0 0 0 0 0 0 0 0 0 0 0 0 0 127 0" result="hardAlpha"/>
<feOffset dy="4"/>
<feGaussianBlur stdDeviation="2.75"/>
<feComposite in2="hardAlpha" operator="out"/>
<feColorMatrix type="matrix" values="0 0 0 0 0 0 0 0 0 0 0 0 0 0 0 0 0 0 0.25 0"/>
<feBlend mode="normal" in2="BackgroundImageFix" result="effect1_dropShadow_174_5"/>
<feBlend mode="normal" in="SourceGraphic" in2="effect1_dropShadow_174_5" result="shape"/>
</filter>
<filter id="filter1_d_174_5" x="57.207" y="137.146" width="143.236" height="186.105" filterUnits="userSpaceOnUse" color-interpolation-filters="sRGB">
<feFlood flood-opacity="0" result="BackgroundImageFix"/>
<feColorMatrix in="SourceAlpha" type="matrix" values="0 0 0 0 0 0 0 0 0 0 0 0 0 0 0 0 0 0 127 0" result="hardAlpha"/>
<feOffset dy="4"/>
<feGaussianBlur stdDeviation="2"/>
<feComposite in2="hardAlpha" operator="out"/>
<feColorMatrix type="matrix" values="0 0 0 0 0 0 0 0 0 0 0 0 0 0 0 0 0 0 0.25 0"/>
<feBlend mode="normal" in2="BackgroundImageFix" result="effect1_dropShadow_174_5"/>
<feBlend mode="normal" in="SourceGraphic" in2="effect1_dropShadow_174_5" result="shape"/>
</filter>
<clipPath id="clip0_174_5">
<rect width="281.967" height="281.967" fill="white" transform="translate(385.175 244.191) rotate(150)"/>
</clipPath>
</defs>
</svg>

